<svg version="1.1" id="Layer_1" xmlns="http://www.w3.org/2000/svg" xmlns:xlink="http://www.w3.org/1999/xlink" x="0px" y="0px"
	 width="100%" viewBox="0 0 1024 1024" enable-background="new 0 0 1024 1024" xml:space="preserve">
<path fill="#000000" opacity="1.000000" stroke="none" 
	d="
M471.006165,501.000000 
	C471.065002,507.996704 471.119873,514.493469 471.185852,520.990173 
	C471.248474,527.156128 474.551483,530.770996 480.186310,532.757141 
	C487.074677,535.185120 494.321136,534.733093 501.394104,535.660278 
	C503.128601,535.887695 505.589661,535.330505 505.632599,537.937988 
	C505.676514,540.606018 503.202301,540.213196 501.474884,540.216064 
	C473.981384,540.261414 446.487823,540.266479 418.994263,540.253540 
	C417.376923,540.252747 415.273071,540.473389 415.244293,538.084473 
	C415.216522,535.777832 417.226074,535.748413 418.905121,535.725769 
	C424.920654,535.644592 430.862244,534.884583 436.713806,533.574036 
	C445.618988,531.579651 449.664093,526.457764 449.666565,517.256958 
	C449.677979,475.100128 449.610870,432.943237 449.667419,390.786499 
	C449.683075,379.106781 444.478760,371.177399 433.643219,366.806641 
	C419.738220,361.197784 405.412811,360.387451 390.980865,363.701843 
	C376.990204,366.914917 368.541443,376.070007 365.342316,390.059753 
	C364.971283,391.682190 364.629974,393.313904 364.184418,394.916138 
	C363.624451,396.929840 362.033997,397.260986 360.243103,397.122620 
	C358.359894,396.977051 357.704651,395.750092 357.694916,394.053619 
	C357.629700,382.681061 358.598724,371.406921 362.518127,360.663208 
	C365.122223,353.525085 371.430786,350.496552 378.290924,348.919037 
	C401.350616,343.616302 423.901093,345.394928 445.821228,354.403046 
	C450.003265,356.121674 453.696198,358.686096 457.383636,361.290344 
	C466.826050,367.958862 471.325226,376.917908 471.263641,388.527405 
	C471.065674,425.851013 471.076691,463.175720 471.006165,501.000000 
z"/>
<path fill="#000000" opacity="1.000000" stroke="none" 
	d="
M564.229614,486.000000 
	C564.205200,502.826080 564.080688,519.153076 564.226624,535.477600 
	C564.264282,539.698425 563.049561,541.666199 558.549561,541.354187 
	C554.404541,541.066711 550.212341,541.094055 546.062561,541.343018 
	C541.883118,541.593872 540.586548,539.880859 540.619690,535.807373 
	C540.772644,516.983582 540.685913,498.157837 540.685425,479.332794 
	C540.685242,471.836121 540.469849,464.330780 540.768860,456.846039 
	C540.942505,452.500000 539.557678,451.031464 535.119568,451.086426 
	C517.130127,451.309235 499.136536,451.221039 481.144531,451.201385 
	C474.877411,451.194519 474.761169,450.747253 474.615997,444.774780 
	C474.505615,440.232971 476.823547,439.635101 480.515472,439.646240 
	C505.504181,439.721619 530.493286,439.683502 555.482239,439.674805 
	C590.466797,439.662598 625.451660,439.719238 660.435364,439.536926 
	C665.018250,439.513031 666.488159,440.870819 666.407166,445.471527 
	C666.157776,459.627502 666.353271,473.790894 666.289551,487.951019 
	C666.279907,490.095612 667.110718,492.882416 663.441040,493.246643 
	C660.163635,493.571869 659.100159,491.544525 658.363403,488.928955 
	C657.506775,485.888031 656.553772,482.873810 655.615173,479.856537 
	C650.476501,463.338989 638.624023,454.848236 622.080566,452.497772 
	C604.029175,449.933044 585.827454,451.664459 567.698059,451.216187 
	C564.181580,451.129272 564.287109,453.596558 564.283875,456.012939 
	C564.270752,465.841949 564.248901,475.670990 564.229614,486.000000 
z"/>
<path fill="#000000" opacity="1.000000" stroke="none" 
	d="
M503.631775,364.335602 
	C492.887054,362.599792 482.579193,364.013397 472.274323,364.242981 
	C464.792572,364.409729 461.106842,362.083893 457.621368,354.911346 
	C458.881866,352.960358 460.902740,353.738251 462.583130,353.733185 
	C487.906403,353.656860 513.230530,353.733154 538.552795,353.545959 
	C542.902466,353.513824 544.417236,354.857910 544.334045,359.258240 
	C544.110596,371.082428 544.297180,382.914093 544.278442,394.742706 
	C544.275085,396.865356 544.627869,399.417358 541.613831,399.856720 
	C538.411743,400.323547 537.906372,397.807312 537.277039,395.491394 
	C536.360962,392.120239 535.605835,388.677002 534.351318,385.431000 
	C529.021790,371.640808 517.754333,366.233643 503.631775,364.335602 
z"/>
<path fill="#000000" opacity="1.000000" stroke="none" 
	d="
M428.217529,439.449310 
	C432.756897,439.237274 436.920380,439.205658 441.077667,439.028259 
	C444.793396,438.869659 446.121735,440.704193 445.987915,444.214020 
	C445.721466,451.202698 445.579865,458.196106 445.378723,465.187317 
	C445.344818,466.365723 445.267090,467.596252 444.333893,468.431213 
	C437.983093,474.112976 435.898499,481.802948 434.304962,489.707184 
	C433.728729,492.565369 432.012543,493.452362 429.283142,493.315369 
	C427.054382,493.203491 425.820648,492.307343 425.848907,490.012604 
	C426.049866,473.693115 425.435242,457.359192 426.714752,441.061188 
	C426.755920,440.536713 427.449524,440.063446 428.217529,439.449310 
z"/>
<path fill="#000000" opacity="1.000000" stroke="none" 
	d="
M509.104950,622.022583 
	C510.071289,620.568665 510.958252,619.472473 512.516052,620.393066 
	C513.505737,620.977905 513.776062,622.346558 513.251343,623.043091 
	C509.880737,627.517517 510.644836,631.589844 514.894653,635.205139 
	C513.740967,635.862671 513.156128,636.406677 512.942078,636.287048 
	C507.908356,633.474365 503.082092,635.357117 498.009735,636.401672 
	C492.623230,637.510986 488.410431,634.908752 486.583313,630.462097 
	C484.494354,625.378174 486.873596,621.833496 490.811279,618.894348 
	C491.330658,618.506653 491.777679,618.022095 492.427338,617.427612 
	C492.135498,616.637573 491.994293,615.805725 491.565125,615.167603 
	C489.095764,611.496033 489.696228,608.007996 492.814240,605.326050 
	C496.061584,602.532776 499.883301,602.669434 503.461731,605.041199 
	C506.960419,607.360107 507.526459,611.138611 505.014130,614.565857 
	C500.814362,620.295044 500.820923,620.342041 506.508209,625.182495 
	C508.128845,624.930786 508.314026,623.441956 509.104950,622.022583 
M500.888672,626.534119 
	C500.265320,625.760620 499.697754,624.932556 499.006287,624.225708 
	C497.803406,622.996094 496.987396,620.814026 494.686768,621.747498 
	C492.770813,622.524963 491.492554,624.077454 490.975677,626.142639 
	C490.352020,628.634399 491.620850,630.266357 493.532806,631.553589 
	C496.333374,633.439209 498.973022,632.341797 501.422119,630.855408 
	C503.304810,629.712708 502.178986,628.318054 500.888672,626.534119 
M495.675110,609.283203 
	C495.085205,611.333923 495.107361,613.338623 497.300751,614.319824 
	C498.908630,615.039062 500.080627,613.757019 500.957153,612.556580 
	C501.925568,611.230164 501.981384,609.758362 500.755035,608.547119 
	C499.195374,607.006592 497.573364,607.119690 495.675110,609.283203 
z"/>
<path fill="#000000" opacity="1.000000" stroke="none" 
	d="
M368.505493,611.722168 
	C370.300049,612.668518 371.687195,613.361023 371.698853,610.652039 
	C371.708893,608.325562 371.719727,605.996887 371.829315,603.673889 
	C371.897278,602.232910 372.461670,601.035461 374.179230,601.045959 
	C375.642273,601.054932 376.255219,602.081726 376.258148,603.339172 
	C376.282593,613.808350 376.267853,624.277771 376.216614,634.746887 
	C376.210236,636.054077 375.105713,637.485535 374.113129,636.897217 
	C370.883881,634.983215 368.070801,637.012695 365.087952,637.283752 
	C360.033600,637.743042 356.273956,635.609253 354.114838,631.139526 
	C351.440216,625.602600 351.789459,620.005310 355.674164,615.192627 
	C358.831726,611.280701 363.133453,609.758423 368.505493,611.722168 
M367.902649,616.536255 
	C364.898987,614.429260 362.037323,615.075623 359.868408,617.599731 
	C357.074646,620.850891 356.290161,624.778320 358.140686,628.796021 
	C360.392456,633.684875 366.145691,634.317627 369.612885,630.204224 
	C372.642426,626.610046 372.258484,622.180054 367.902649,616.536255 
z"/>
<path fill="#000000" opacity="1.000000" stroke="none" 
	d="
M410.738586,631.462158 
	C414.510895,633.668518 417.724884,632.940918 420.834503,630.804321 
	C421.966980,630.026306 423.237396,629.342163 424.379211,630.692261 
	C425.523041,632.044678 424.618042,633.143188 423.671997,634.156982 
	C420.444946,637.615112 413.301422,638.325928 408.781097,635.638611 
	C403.991364,632.791138 401.632263,626.036560 403.423462,620.298767 
	C405.290131,614.319214 410.306122,610.499573 415.938538,610.768738 
	C421.364166,611.028015 425.361938,614.844666 426.373444,620.448059 
	C427.013611,623.994202 425.916779,625.939880 422.146149,625.960571 
	C418.988617,625.977905 415.829865,625.927917 412.674042,626.005676 
	C411.234589,626.041138 409.418732,625.681580 408.735107,627.402283 
	C408.086182,629.035583 409.376648,630.170593 410.738586,631.462158 
M421.191620,619.916809 
	C420.022095,616.418518 417.552582,614.728577 413.968201,615.477173 
	C411.114349,616.073120 408.954681,617.726990 408.961243,621.539551 
	C413.229218,621.218994 417.281860,622.886597 421.191620,619.916809 
z"/>
<path fill="#000000" opacity="1.000000" stroke="none" 
	d="
M720.254639,629.720154 
	C722.629761,632.664673 720.220154,634.153442 718.542236,635.463318 
	C714.194580,638.857422 706.073608,637.646240 702.674744,633.326904 
	C698.294861,627.760864 698.797302,618.970093 703.949585,614.137756 
	C707.546265,610.764404 711.838867,609.840027 716.419617,611.854065 
	C721.123230,613.922058 722.513916,618.230652 722.967163,622.860107 
	C723.234802,625.593567 721.159607,626.095520 718.979431,626.107666 
	C715.483704,626.127136 711.987366,626.070984 708.491821,626.102905 
	C707.327271,626.113525 706.006897,626.173706 705.546997,627.502625 
	C705.045410,628.952393 705.846375,630.143372 706.920044,630.992249 
	C709.833618,633.295898 712.972717,633.660767 716.115051,631.508972 
	C717.322083,630.682434 718.153748,629.235657 720.254639,629.720154 
M717.390137,619.784607 
	C716.341187,616.502808 714.057739,614.771179 710.688599,615.441956 
	C707.880432,616.000916 705.767090,617.693481 705.736145,621.404602 
	C709.811646,621.346863 713.654053,622.743896 717.390137,619.784607 
z"/>
<path fill="#000000" opacity="1.000000" stroke="none" 
	d="
M666.850708,629.463989 
	C668.828735,624.624084 667.549072,619.905518 668.001953,615.300476 
	C668.179871,613.491028 668.063354,611.257263 670.688660,611.365601 
	C672.930481,611.458130 673.005249,613.508728 673.015686,615.148682 
	C673.053711,621.143311 673.086548,627.142395 672.889954,633.132202 
	C672.795776,636.000061 671.852234,638.323242 668.256287,636.090881 
	C666.691650,635.119568 665.379517,636.265442 663.995972,636.646790 
	C656.912903,638.598999 651.667358,635.261658 650.910522,627.848877 
	C650.472778,623.561890 650.756348,619.197815 650.782898,614.868835 
	C650.792236,613.350464 650.903320,611.678040 653.009521,611.641724 
	C655.137268,611.605042 655.255676,613.255310 655.280884,614.792419 
	C655.335388,618.122864 655.315918,621.454468 655.338318,624.785461 
	C655.359375,627.913513 655.848633,631.042175 659.068542,632.339050 
	C662.029541,633.531616 664.558472,632.027100 666.850708,629.463989 
z"/>
<path fill="#000000" opacity="1.000000" stroke="none" 
	d="
M576.726379,618.714233 
	C576.683899,616.833435 575.914307,615.918091 574.729065,615.085815 
	C573.487793,614.214233 573.014526,612.632935 574.414368,611.766479 
	C576.624207,610.398804 576.808472,608.408508 577.050659,606.244019 
	C577.186890,605.026978 577.758728,603.986572 579.238098,604.013062 
	C580.726379,604.039734 581.276733,605.068237 581.270508,606.327148 
	C581.256165,609.237305 581.832825,611.395630 585.310059,612.096069 
	C586.790100,612.394287 586.888672,614.721558 585.255371,615.001465 
	C580.507446,615.815247 581.466064,619.256653 581.413879,622.275513 
	C581.376648,624.430359 581.554810,626.588074 581.565369,628.744812 
	C581.574280,630.577942 582.107361,632.112122 584.031250,632.568909 
	C585.759644,632.979309 586.914551,633.763367 586.272644,635.612488 
	C585.663269,637.368042 583.922974,637.341492 582.451721,637.152466 
	C578.664368,636.665710 577.093201,634.009766 576.877197,630.578857 
	C576.637756,626.774841 576.771362,622.947327 576.726379,618.714233 
z"/>
<path fill="#000000" opacity="1.000000" stroke="none" 
	d="
M293.370972,636.464722 
	C287.738464,637.331543 285.462128,635.746033 284.869202,630.760071 
	C284.615326,628.625366 284.746552,626.444214 284.712769,624.284058 
	C284.648163,620.154846 286.016022,615.436584 278.999817,613.861328 
	C283.043243,611.598938 285.521637,609.483459 285.123016,605.501160 
	C285.020630,604.478577 286.163025,603.881531 287.306244,603.988342 
	C288.778839,604.125793 289.243011,605.194885 289.255829,606.434814 
	C289.285492,609.302795 289.496277,611.873108 293.465027,611.548645 
	C294.290527,611.481140 294.953491,612.225525 294.988983,613.203003 
	C295.032623,614.404114 294.336975,615.187256 293.245361,615.215698 
	C289.393127,615.316284 289.220947,617.873901 289.317291,620.741577 
	C289.384277,622.734192 289.332977,624.730835 289.329895,626.725708 
	C289.325775,629.423889 289.133667,632.114319 292.731354,632.986389 
	C294.385193,633.387268 294.415283,634.814270 293.370972,636.464722 
z"/>
<path fill="#000000" opacity="1.000000" stroke="none" 
	d="
M618.165527,622.612671 
	C618.045044,626.544006 618.045227,630.044556 617.857483,633.534912 
	C617.768677,635.187256 617.514648,637.115051 615.194763,637.002441 
	C613.199097,636.905579 612.992737,635.183044 612.978088,633.671204 
	C612.916748,627.342407 612.937805,621.012756 612.930298,614.683411 
	C612.930115,614.517090 612.946350,614.350708 612.958008,614.184509 
	C613.060425,612.725525 614.404297,610.801331 615.073120,611.494141 
	C618.517517,615.062195 622.765076,608.367371 625.599121,612.474609 
	C626.793762,614.205933 625.013733,615.511047 623.288696,616.051697 
	C620.241394,617.006714 618.606812,619.061584 618.165527,622.612671 
z"/>
<path fill="#000000" opacity="1.000000" stroke="none" 
	d="
M326.261902,617.189209 
	C326.269043,622.640808 326.305817,627.614929 326.264404,632.588501 
	C326.249573,634.371094 326.512939,636.675659 323.943207,636.773560 
	C321.074768,636.882874 321.154846,634.404480 321.122925,632.457764 
	C321.036163,627.160767 321.026642,621.860413 321.118317,616.563599 
	C321.150909,614.679504 320.745117,612.018616 323.543732,611.916626 
	C326.854218,611.796021 326.002106,614.720947 326.261902,617.189209 
z"/>
<path fill="#000000" opacity="1.000000" stroke="none" 
	d="
M326.159729,603.485840 
	C326.638611,606.428650 325.804413,608.223816 322.870605,607.592346 
	C321.294067,607.252991 320.431976,605.623291 321.080872,604.064209 
	C322.145477,601.506287 323.917114,601.024414 326.159729,603.485840 
z"/>
</svg>