<?xml version="1.0" encoding="utf-8"?>
<!-- Generator: Adobe Illustrator 24.1.0, SVG Export Plug-In . SVG Version: 6.00 Build 0)  -->
<svg version="1.1" id="Layer_1" xmlns="http://www.w3.org/2000/svg" xmlns:xlink="http://www.w3.org/1999/xlink" x="0px" y="0px"
	 viewBox="0 0 1024 1024" style="enable-background:new 0 0 1024 1024;" xml:space="preserve">
<path d="M942.4,366.7c0,13-1.7,27.2-5.2,42.7s-6.8,23.2-10,23.2c-2.5,0-3.7-1.2-3.7-3.7c0-0.8,0.2-1.9,0.7-3.4
	c6.6-17.5,9.9-36.3,9.9-56.5c0-31.4-9.4-56.7-28.1-75.8c-18.7-19.1-43.5-28.6-74.2-28.6c-41.5,0-84.2,13.6-128.1,40.8
	c37.5,30,56.2,63.9,56.2,101.9c0,32-12.9,59.8-38.6,83.5c-25.7,23.7-55.8,35.6-90.2,35.6c-13.5,0-28-2.7-43.4-8.1
	c-15.5-5.4-23.2-10.5-23.2-15.3c0.5-1.5,1.5-2.3,3-2.3c1.2,0,3.2,0.8,6,2.3c15.5,8.9,31.1,13.3,46.8,13.3
	c28.4,0,52.8-12.2,73.2-36.7c20.3-24.5,30.5-53.7,30.5-87.7c0-29.2-10.5-55.3-31.5-78.3c-54.2,40.5-105.6,111.6-154.3,213.5
	c-29.5,61.7-56.4,106.2-80.9,133.4s-58.8,51.8-103,73.8c-52.2,25.5-98.8,38.2-139.7,38.2c-33.5,0-61.3-7.7-83.5-23
	C108.7,734.2,97.6,715,97.6,692c0-12.7,3.8-23.7,11.4-33c7.6-9.2,16.7-13.9,27.2-13.9c15.2,0,22.9,8.5,22.9,25.5
	c0,8.5-2.6,15.7-7.7,21.7c-5.1,6-11.4,9-18.9,9c-13,0-19.2-6.7-18.7-20.2c0.2-5.5-0.3-8.2-1.5-8.2c-4,0-6,6.6-6,19.9
	c0,20.7,10.2,38,30.5,51.7c20.4,13.7,46,20.6,77,20.6c54.7,0,104.3-20.2,148.7-60.7c19.5-17.7,36.1-35.8,49.8-54.3
	c15-20,47.7-68.4,98.2-145.4c25.2-38,54.9-76,89.2-114.3c34.2-38.2,63.3-65.6,87.3-82c-39-33.2-96.2-49.8-171.6-49.8
	c-105.4,0-197.1,38.1-275,114.3c-63.9,62.4-95.9,121.3-95.9,176.5c0,28,9,50.2,27,66.7s42.3,24.7,73.1,24.7
	c50.2,0,102.1-24.1,155.7-72.3s80.4-95,80.4-140.5c0-36.2-18.6-54.3-55.8-54.3s-77.1,20.8-119.7,62.3s-63.9,80.5-63.9,117
	c0,9,3,16.7,9,23.2s13.1,9.7,21.1,9.7c4.3,0,6.4,1.1,6.4,3.4c0,2-2.4,3-7.1,3c-12,0-22.2-5.4-30.5-16.3
	c-8.3-10.9-12.4-24.1-12.4-39.9c0-38.9,21.4-76.9,64.1-113.8s86.5-55.4,131.5-55.4c43,0,64.4,19.9,64.4,59.6
	c0,48.5-27.3,97.4-82,146.9c-54.7,49.5-108.6,74.2-161.8,74.2c-34.7,0-62.5-10.4-83.4-31.3c-20.9-20.9-31.3-48.8-31.3-83.7
	c0-70.7,39.9-135.2,119.7-193.5s168-87.5,264.7-87.5c73.4,0,135.1,16.4,185.1,49.1c45.7-28.5,89.9-42.7,132.6-42.7
	c33.5,0,60.4,10,80.7,29.9C932.2,307.7,942.4,334,942.4,366.7z"/>
</svg>
